<?xml version="1.0" encoding="iso-8859-1"?>
<!-- Generator: Adobe Illustrator 18.0.0, SVG Export Plug-In . SVG Version: 6.00 Build 0)  -->
<!DOCTYPE svg PUBLIC "-//W3C//DTD SVG 1.1//EN" "http://www.w3.org/Graphics/SVG/1.1/DTD/svg11.dtd">
<svg version="1.1" id="Capa_1" xmlns="http://www.w3.org/2000/svg" xmlns:xlink="http://www.w3.org/1999/xlink" x="0px" y="0px"
	 viewBox="0 0 350 350" style="enable-background:new 0 0 350 350;" xml:space="preserve">
<path d="M325.908,286.604h-11.781l-9.469-22.779V132.214l6.374-15.334h37.171v-23.4L175,6.88L1.795,93.479v23.4h37.173l6.372,15.329
	V263.83l-9.467,22.774H24.092L0,307.651v35.469h350v-35.469L325.908,286.604z M76.498,261.011H55.34V135.028h21.158V261.011z
	 M154.422,263.821l-9.469,22.783h-48.99l-9.465-22.769V132.204l6.37-15.324h55.18l6.374,15.338V263.821z M185.578,261.011h-21.156
	V135.028h21.156V261.011z M190.943,60.009L178.881,96.64h-9.082L158.541,59.95h-0.287c0.408,7.467,0.607,12.447,0.607,14.941V96.64
	H150V49.874h13.5l11.07,35.76h0.189l11.738-35.76H200V96.64h-9.252V74.502c0-1.04,0.021-2.247,0.049-3.614
	c0.041-1.367,0.186-4.984,0.439-10.879H190.943z M263.502,263.83l-9.467,22.774h-48.99l-9.467-22.778V132.213l6.372-15.333h55.18
	l6.372,15.329V263.83z M294.658,261.011h-21.156V135.028h21.156V261.011z"/>
<g>
</g>
<g>
</g>
<g>
</g>
<g>
</g>
<g>
</g>
<g>
</g>
<g>
</g>
<g>
</g>
<g>
</g>
<g>
</g>
<g>
</g>
<g>
</g>
<g>
</g>
<g>
</g>
<g>
</g>
</svg>
