<?xml version="1.0" encoding="utf-8"?>
<!-- Svg Vector Icons : http://www.onlinewebfonts.com/icon -->
<!DOCTYPE svg PUBLIC "-//W3C//DTD SVG 1.1//EN" "http://www.w3.org/Graphics/SVG/1.1/DTD/svg11.dtd">
<svg version="1.1" xmlns="http://www.w3.org/2000/svg" xmlns:xlink="http://www.w3.org/1999/xlink" x="0px" y="0px" viewBox="0 0 1000 1000" enable-background="new 0 0 1000 1000" xml:space="preserve">
<metadata> Svg Vector Icons : http://www.onlinewebfonts.com/icon </metadata>
<g><g transform="translate(0.000000,511.000000) scale(0.100000,-0.100000)"><path d="M4265,4993.7c-533.9-57.5-936.6-156.5-1049.3-255.4c-101.3-89.8-124.3-181.8-124.3-524.7c0-184.1-11.5-308.4-29.9-345.2c-34.5-71.3-126.6-117.4-395.8-200.2c-319.8-99-310.6-73.6-310.6-853.7c0-591.4,2.3-630.5,41.4-614.4c724.8,292.3,1498,487.8,2225.2,563.8c140.4,13.8,285.3,27.6,322.2,32.2c105.9,11.5,494.7-25.3,814.6-78.2c545.4-92,1164.3-257.7,1645.3-439.5c126.6-48.3,234.7-82.8,241.6-78.2c4.6,6.9,11.5,278.4,11.5,605.2c2.3,787,9.2,775.5-409.6,899.7c-326.7,96.7-322.2,89.8-336,527c-13.8,439.5-39.1,501.6-237,575.3c-151.9,57.5-393.5,112.8-692.6,156.5C5703.2,5007.5,4561.8,5025.9,4265,4993.7z M5956.3,4319.5c151.9-27.6,195.6-46,248.5-105.8c73.6-80.5,78.3-158.8,18.4-232.4c-50.6-64.4-66.7-64.4-646.6-23c-437.2,32.2-1040.1,23-1465.8-20.7c-243.9-25.3-312.9-6.9-347.5,92c-29.9,82.8,18.4,195.6,108.2,239.3c39.1,20.7,181.8,52.9,317.5,69C4525,4383.9,5689.4,4372.4,5956.3,4319.5z"/><path d="M4506.6,2315.2C3171.9,2128.8,1933.9,1629.5,916.9,865.5c-336-253.1-563.8-455.6-625.9-559.2c-69-110.5-71.3-292.3-6.9-416.5c23-48.3,421.1-745.6,883.6-1546.4c598.3-1040.1,860.6-1472.7,908.9-1507.2c94.3-66.7,246.2-87.5,384.3-52.9c87.4,23,135.8,55.2,216.3,142.7c287.6,317.6,407.3,425.7,554.6,494.7c480.9,230.1,1010.2,76,1366.9-398.1c69-92.1,140.4-172.6,161.1-179.5c29.9-13.8,34.5,273.8,34.5,2745.2c0,2616.4-2.3,2761.3-39.1,2759C4732.1,2345.1,4621.7,2331.3,4506.6,2315.2z"/><path d="M5208.4-423.1c0-2526.6,2.3-2772.9,36.8-2772.9c39.1,0,89.7,50.6,315.2,308.3c154.2,174.9,294.6,276.1,462.5,342.9c467.1,177.2,961.9,11.5,1290.9-430.3c80.5-110.5,154.2-181.8,211.7-209.4c108.2-52.9,361.3-59.8,409.6-9.2c18.4,18.4,432.6,724.9,922.7,1574C9723.2-124,9748.6-73.4,9760.1,62.4c16.1,225.5-32.2,292.2-487.8,658.1C8379.4,1440.8,7249.5,1970,6089.8,2211.6c-250.8,52.9-791.6,138.1-872.1,138.1C5213.1,2349.7,5208.4,1102.5,5208.4-423.1z"/><path d="M767.3-3154.6c-220.9-119.7-301.4-349.8-209.4-593.7c163.4-425.7,671.9-823.8,1256.4-980.3c186.4-48.3,625.9-66.7,839.9-34.5c319.9,50.6,671.9,197.9,936.6,395.8l94.3,71.3l124.3-92c168-124.3,414.2-246.2,655.8-319.9c179.5-52.9,241.6-59.8,559.2-62.1c303.8-2.3,384.3,4.6,547.7,50.6c299.2,80.5,497.1,181.8,796.2,405c18.4,11.5,89.7-25.3,200.2-103.5c207.1-149.6,434.9-257.7,678.8-322.2c234.7-62.1,635.1-66.7,892.9-11.5c745.6,161.1,1417.5,727.1,1417.5,1194.3c0,154.2-34.5,234.7-147.3,333.7c-209.4,184.1-464.8,149.6-660.4-89.7c-216.3-264.6-395.8-425.7-538.5-483.2c-122-48.3-174.9-55.2-448.7-55.2c-462.5,0-614.4,71.3-904.3,423.4c-216.3,264.6-285.4,312.9-451,312.9c-184.1-2.3-299.1-73.6-451-285.4c-223.2-308.3-460.2-437.2-842.2-457.9c-434.9-20.7-747.9,119.7-989.5,448.7c-122,163.4-174.9,211.7-292.3,264.6c-191,85.1-400.4-6.9-579.9-260c-119.7-165.7-312.9-317.6-501.6-391.2c-110.4-46-174.9-52.9-418.8-52.9c-248.5-2.3-306,4.6-418.8,50.6c-197.9,80.5-336,184.1-490.1,372.8c-200.2,241.6-285.3,303.8-430.3,315.3C896.2-3101.6,850.1-3110.8,767.3-3154.6z"/></g></g>
</svg>