<?xml version="1.0" encoding="utf-8"?>
<!-- Svg Vector Icons : http://www.onlinewebfonts.com/icon -->
<!DOCTYPE svg PUBLIC "-//W3C//DTD SVG 1.1//EN" "http://www.w3.org/Graphics/SVG/1.1/DTD/svg11.dtd">
<svg version="1.1" xmlns="http://www.w3.org/2000/svg" xmlns:xlink="http://www.w3.org/1999/xlink" x="0px" y="0px" viewBox="0 0 1000 1000" enable-background="new 0 0 1000 1000" xml:space="preserve">
<metadata> Svg Vector Icons : http://www.onlinewebfonts.com/icon </metadata>
<g><g transform="translate(0.000000,511.000000) scale(0.100000,-0.100000)"><path d="M4597.4,4993c-92.1-9.8-268.5-41.2-392-68.6c-1264.1-284.2-2285.1-1230.8-2655.5-2465.4c-119.5-395.9-139.1-552.7-139.1-1099.5c2-507.6,21.6-703.6,111.7-1117.1C1887-1433.2,3060.9-3204.9,4752.2-4627.7c245-205.8,227.3-201.9,395.9-66.6C6427.8-3661.5,7572.4-2183.8,8117.2-857c429.2,1044.6,576.2,2146,397.8,2998.5C8238.7,3480,7211.8,4559.8,5898.7,4896.9C5520.5,4994.9,4965.8,5036.1,4597.4,4993z M5420.5,4218.8c531.1-90.2,1038.7-344.9,1434.6-713.4c339-317.5,595.8-709.5,742.8-1136.7c92.1-264.6,133.3-493.9,147-803.5c31.4-811.3-254.8-1534.5-832.9-2108.7c-392-388-899.6-654.6-1464-764.3c-243-49-756.5-49-999.5,0C3292.2-1080.5,2441.6-239.7,2190.7,920.5c-50.9,233.2-49,840.7,2,1075.9c123.5,570.3,368.4,1023,776.1,1432.6c456.6,456.6,960.3,709.4,1626.6,809.4C4740.4,4260,5252,4248.2,5420.5,4218.8z"/><path d="M4609.1,3427.1c-642.8-107.8-1234.7-574.2-1495.3-1175.9c-127.4-294-152.9-421.4-152.9-803.5c-2-415.5,29.4-558.5,194-895.6l109.8-221.5l49,31.4c25.5,17.6,45.1,39.2,43.1,45.1c-3.9,5.9-43.1,84.3-90.1,172.5c-109.8,215.6-180.3,462.5-194,687.9c-5.9,98-3.9,180.3,3.9,180.3c7.8,0,43.1-15.7,76.4-37.2c33.3-19.6,96-47,139.1-60.8s111.7-56.8,150.9-96c43.1-41.2,98-74.5,137.2-80.4c54.9-7.8,64.7-17.6,58.8-58.8c-2-27.4-21.6-84.3-41.2-127.4c-62.7-131.3-68.6-229.3-21.6-323.4l41.2-80.4l82.3,60.8c45.1,35.3,133.3,98,196,143.1c60.8,43.1,111.7,86.2,111.7,94.1s-56.8,39.2-127.4,68.6c-72.5,31.4-115.6,60.8-101.9,68.6c11.8,5.9,101.9,27.4,196,47c96,19.6,164.6,41.2,154.8,47s-29.4,45.1-43.1,88.2c-23.5,72.5-25.5,74.5-96,62.7c-58.8-9.8-86.2-2-139.1,37.2l-66.6,49l-72.5-70.5c-56.8-56.8-80.4-66.6-123.5-54.9c-64.7,15.7-109.8,78.4-109.8,150.9c0,47-5.9,52.9-41.2,43.1c-41.2-13.7-41.2-9.8-29.4,76.4c15.7,99.9-15.7,125.4-62.7,51c-29.4-47-88.2-51-131.3-5.9c-51,51-27.4,180.3,43.1,235.2c29.4,25.5,74.5,45.1,99.9,45.1c23.5,0,49,11.8,54.9,27.4c15.7,39.2,109.8,13.7,158.7-45.1l43.1-51l2,72.5c0,58.8,13.7,86.2,70.6,137.2c39.2,35.3,88.2,98,107.8,137.2c23.5,45.1,56.8,78.4,86.2,86.2c25.5,5.9,60.8,31.3,76.4,56.8c15.7,25.5,58.8,49,96,56.8c41.2,7.8,80.4,31.3,100,60.7l31.4,49h-92.1c-92.1,2-92.1,2-45.1,29.4c27.4,15.7,74.5,27.4,103.9,29.4c68.6,0,190.1,51,190.1,76.4c0,11.7-21.6,35.3-49,52.9c-27.4,17.6-43.1,39.2-37.2,49c5.9,9.8,0,35.3-11.8,56.8c-15.7,29.4-33.3,37.3-60.8,29.4c-25.5-7.8-37.2-3.9-37.2,15.7c0,15.7-21.6,43.1-47,60.8c-47,29.4-49,29.4-88.2-35.3c-23.5-35.3-41.2-80.4-41.2-100c0-17.6-17.6-37.2-37.2-43.1c-21.6-5.9-49-35.3-62.7-68.6l-23.5-58.8l-21.6,51c-11.8,29.4-52.9,66.6-90.2,86.2c-103.9,51-98,88.2,27.4,168.6c113.7,72.5,180.3,150.9,162.7,194c-5.9,13.7,7.8,37.2,27.4,49c31.4,21.6,37.2,17.6,37.2-17.6c0-21.6-17.6-62.7-39.2-90.2c-21.6-27.4-39.2-62.7-39.2-76.4c0-45.1,58.8-31.4,78.4,19.6c19.6,52.9,90.2,109.7,137.2,109.7c15.7,0,68.6-25.5,117.6-58.8c82.3-52.9,88.2-54.9,123.5-25.5c33.3,31.3,33.3,33.3-11.8,58.8c-27.4,13.7-52.9,37.2-60.8,54.9c-5.9,15.7-25.5,29.4-45.1,29.4c-19.6,0-60.7,13.7-92.1,29.4c-51,27.4-60.8,27.4-92.1,0c-17.6-17.6-39.2-23.5-45.1-13.7c-31.4,52.9,578.1,258.7,752.6,256.7l68.6-2l-78.4-15.7c-147-29.4-299.8-80.3-321.4-105.8c-17.6-19.6-3.9-37.2,56.8-78.4c82.3-54.9,96-98,51-158.8c-23.5-33.3-21.6-49,13.7-121.5c23.5-47,47-84.3,54.9-84.3s41.2,33.3,74.5,74.5c45.1,52.9,100,88.2,211.7,131.3c141.1,54.9,156.8,66.6,196,147c60.8,123.5,56.8,147-27.4,182.3l-74.5,29.4l90.1,2c205.8,3.9,484.1-72.5,748.7-207.8c160.7-82.3,215.6-127.4,111.7-88.2c-80.3,29.4-294-43.1-294-99.9c0-11.7-27.4-43.1-60.7-72.5c-52.9-43.1-60.8-58.8-49-113.7c13.7-58.8,15.7-60.7,58.8-33.3c41.2,27.5,47,25.5,80.4-9.8c19.6-21.5,47-39.2,62.7-39.2c25.5,0,27.4,9.8,33.3,119.6c2,37.2,19.6,74.5,49,98c66.6,54.9,82.3,47,68.6-39.2c-11.8-74.5-9.8-76.4,33.3-66.6c37.3,9.8,25.5-7.9-54.9-88.2c-54.9-56.8-117.6-101.9-139.1-101.9c-60.8,0-101.9,21.6-101.9,52.9c0,15.7-7.8,23.5-19.6,15.7c-9.8-5.9-13.7-23.5-5.9-39.2c5.9-19.6-2-29.4-27.5-29.4c-19.6,0-47-9.8-56.8-19.6c-13.7-13.7-37.2,9.8-74.5,78.4c-29.4,52.9-54.9,98-58.8,98c-1.9,0-3.9-60.7-3.9-135.2c2-137.2,13.7-150.9,86.2-94.1c15.7,11.8,23.5,11.8,23.5,0c0-29.4-68.6-84.3-103.9-84.3c-41.2,0-41.2-7.8-2-68.6c31.4-47,29.4-49-9.8-49c-23.5,0-68.6-13.7-99.9-29.4c-49-25.5-58.8-43.1-58.8-98c0-52.9,7.8-68.6,35.3-68.6c19.6,0,45.1-9.8,56.8-21.5c23.5-23.5,103.9-5.9,103.9,21.5c0,39.2,121.5,154.8,174.4,166.6c43.1,9.8,68.6,0,117.6-47c35.3-33.3,58.8-68.6,50.9-80.4c-5.9-9.8,0-19.6,15.7-19.6c39.2,0,54.9,72.5,21.6,100c-45.1,37.2-31.4,64.7,15.7,33.3c25.5-17.6,49-50.9,54.9-76.4c13.7-52.9,78.4-76.4,78.4-29.4c0,35.3,49,43.1,68.6,11.7c5.9-9.8,78.4-19.6,158.7-19.6h145l-11.8-52.9c-49-207.7-227.4-458.6-433.1-613.4c-111.7-84.3-119.5-94.1-152.9-223.4c-47-178.3-54.9-354.7-17.6-386.1c15.7-11.8,27.4-56.8,27.4-103.9c0-45.1,13.7-100,29.4-125.4c23.5-31.4,25.5-52.9,9.8-80.4c-37.2-70.6-21.5-241.1,39.2-413.5c31.3-92.1,58.8-192.1,58.8-223.4c0-49,5.9-52.9,45.1-41.2c23.5,7.8,72.5,17.6,107.8,23.5c72.5,11.8,211.7,162.7,194,209.7c-7.9,17.6,9.8,45.1,41.1,68.6c51,35.3,51,39.2,17.6,74.5c-17.6,21.6-33.3,43.1-33.3,49c0,7.9,43.1,43.1,94.1,80.3l96,68.6l-9.8,156.8c-9.8,178.4,13.7,270.5,92.1,362.6c52.9,62.7,139.1,248.9,139.1,299.9c0,17.6-23.5,27.4-62.7,27.4l-64.7,2l60.7,52.9c35.3,29.4,98,82.3,143.1,117.6c86.2,68.6,99.9,123.5,51,188.2c-23.5,31.3-33.3,33.3-56.9,11.8c-45.1-35.3-147,49-147,125.4l-2,56.8l45.1-41.1c25.5-23.5,68.6-43.1,96.1-43.1c33.3,0,68.6-19.6,94.1-52.9c41.2-52.9,43.1-68.6,33.3-339c-17.6-515.4-166.6-883.9-503.7-1242.5c-246.9-262.6-560.5-452.7-891.7-540.9c-223.4-60.7-607.5-74.5-842.7-29.4c-150.9,27.4-480.1,135.2-480.1,156.8c0,35.3,90.1,145,123.5,154.8c31.4,7.8,54.9,39.2,80.4,107.8c19.6,54.9,29.4,107.8,21.6,119.5c-7.8,11.8,5.9,43.1,29.4,68.6c37.2,39.2,41.2,58.8,27.4,105.8l-17.6,58.8l-254.8-186.2C3978.1,48.4,3878.1-37.9,3874.2-63.3c-3.9-25.5-17.6-35.3-39.2-29.4c-17.6,5.9-54.9-5.9-78.4-25.5l-47-33.3l125.4-82.3c178.3-115.6,431.2-229.3,623.2-278.3c209.7-54.9,586-74.5,799.6-39.2C5984.9-435.7,6596.4,62.1,6847.2,742.1c94.1,258.7,107.8,348.8,107.8,695.7c0,286.1-5.9,356.7-45.1,499.8c-201.9,750.6-795.7,1318.9-1540.4,1471.8C5183.4,3448.6,4791.4,3456.5,4609.1,3427.1z M6161.3,2909.7c15.7-19.6,15.7-31.4-3.9-49c-21.6-15.7-37.2-9.8-72.5,27.4l-45.1,49h49C6116.2,2937.1,6149.6,2925.4,6161.3,2909.7z M6380.8,1622.1c41.2-84.3,84.3-156.8,94.1-162.7c9.8-5.9,13.7-29.4,7.8-49c-5.9-19.6,0-56.8,13.7-80.4c19.6-37.2,17.7-41.1-19.6-35.3c-33.3,3.9-56.8,43.1-109.7,170.5c-35.3,90.1-78.4,178.3-92.1,196c-33.3,37.2-56.8,127.4-39.2,145C6259.3,1829.8,6304.4,1773,6380.8,1622.1z"/><path d="M5120.7,2923.4c-37.2-9.8-47-54.9-15.7-74.5c25.5-15.7,101.9,27.5,92.1,54.9C5189.2,2929.3,5165.7,2935.2,5120.7,2923.4z"/><path d="M4154.5,2897.9c-17.6-29.4,25.5-78.4,70.6-78.4c23.5,0,37.2,13.7,37.2,39.2c0,21.6-7.8,39.2-17.6,39.2c-9.8,0-31.4,5.9-47,11.8C4181.9,2915.6,4162.3,2909.7,4154.5,2897.9z"/><path d="M5281.4,2586.3c0-47,21.5-62.7,54.9-43.1c31.4,19.6,9.8,80.3-27.4,80.3C5293.1,2623.6,5281.4,2605.9,5281.4,2586.3z"/><path d="M4321,2406c0-21.6,9.8-33.3,19.6-27.4c11.8,5.9,19.6,25.5,19.6,41.2c0,15.7-7.8,27.4-19.6,27.4C4330.8,2447.2,4321,2429.5,4321,2406z"/><path d="M5397,2029.7c-62.7-19.6-174.4-123.5-174.4-158.7c0-5.9,45.1-11.8,99.9-11.8c84.3,0,119.6,11.8,217.5,78.4c64.7,43.1,127.4,78.4,137.2,78.4c9.8,0,11.7,9.8,5.9,19.6C5667.4,2061.1,5485.2,2057.2,5397,2029.7z"/><path d="M5983,2014.1c-101.9-23.5-299.8-125.4-419.4-213.6l-100-74.5l-495.8,31.3l-495.8,31.4l-45.1-54.9c-25.5-29.4-47-58.8-47-66.6c0-7.8,145-58.8,323.4-111.7c178.3-54.9,323.4-103.9,323.4-109.7c0-11.8-243-233.2-364.5-331.2c-43.1-37.2-119.6-62.7-294-98l-233.2-47l170.5-76.4l168.5-78.4l13.7-139.1c23.5-235.2,27.4-235.2,158.7-9.8L4762,867.6l241,143.1c133.3,78.4,245,143.1,250.8,143.1c3.9,0,2-158.7-3.9-352.8l-13.7-352.8l66.6,21.6c37.2,13.7,74.5,29.4,84.3,37.2c7.8,9.8,70.5,229.3,137.2,490l121.5,472.3l147,113.7c170.5,135.2,350.8,354.7,350.8,431.2C6143.7,2039.5,6086.8,2039.5,5983,2014.1z"/><path d="M3703.7,497.2c-235.2-174.4-433.1-327.3-435.1-337.1c-7.8-23.5,225.4-280.2,252.8-280.2c15.7,0,785.9,554.6,846.6,607.5c7.8,9.8,9.8,66.6,2,131.3l-13.7,113.7l-99.9,45.1c-56.8,23.5-105.8,43.1-111.7,41.2C4138.8,818.6,3940.8,673.5,3703.7,497.2z"/></g></g>
</svg>