<svg xmlns="http://www.w3.org/2000/svg" viewBox="0 0 25 25"><defs><style>.cls-1{fill:none;stroke:#fff;stroke-miterlimit:10;}</style></defs><title>Asset 1</title><g id="Layer_2" data-name="Layer 2"><g id="Layer_1-2" data-name="Layer 1"><path class="cls-1" d="M12.5,2.66c3.2,0,3.58,0,4.85.07,3.25.15,4.77,1.69,4.92,4.92.06,1.27.07,1.65.07,4.85s0,3.59-.07,4.85c-.15,3.23-1.66,4.77-4.92,4.92-1.27.06-1.64.07-4.85.07s-3.58,0-4.85-.07c-3.26-.15-4.77-1.7-4.92-4.92-.06-1.27-.07-1.64-.07-4.85s0-3.58.07-4.85C2.88,4.42,4.4,2.88,7.65,2.73,8.92,2.68,9.3,2.66,12.5,2.66ZM12.5.5C9.24.5,8.83.51,7.55.57c-4.35.2-6.78,2.62-7,7C.51,8.83.5,9.24.5,12.5s0,3.67.07,4.95c.2,4.36,2.62,6.78,7,7,1.28.06,1.69.07,5,.07s3.67,0,4.95-.07c4.35-.2,6.78-2.62,7-7,.06-1.28.07-1.69.07-4.95s0-3.67-.07-4.95c-.2-4.35-2.62-6.78-7-7C16.17.51,15.76.5,12.5.5Zm0,5.84a6.16,6.16,0,1,0,6.16,6.16A6.16,6.16,0,0,0,12.5,6.34Zm0,10.16a4,4,0,1,1,4-4A4,4,0,0,1,12.5,16.5ZM18.91,4.65a1.44,1.44,0,1,0,1.43,1.44A1.44,1.44,0,0,0,18.91,4.65Z"/></g></g></svg>